
<svg width="100%" height="100%" viewBox="0 0 600 600" version="1.1" xmlns="http://www.w3.org/2000/svg" xmlns:xlink="http://www.w3.org/1999/xlink" xml:space="preserve" xmlns:serif="http://www.serif.com/" style="fill-rule:evenodd;clip-rule:evenodd;stroke-linecap:round;stroke-miterlimit:2;">
    <g transform="matrix(3.13844,0,0,3.13844,-2698.93,-759.027)">
        <g transform="matrix(0.940286,0.529163,-0.509184,0.904785,237.75,-469.58)">
            <path d="M951.5,254.138L943.582,250.324L942.929,250.639L877.4,285.29L876.353,289.879L862.84,361.54L864.934,364.165L911.606,417.786L913.284,417.786L984.477,417.996L985.608,416.578L1031.03,361.026L1030.5,358.69C1030.5,358.69 1028.38,349.77 1026.3,338.278C1022.63,318.042 1018.72,290.105 1018.72,290.105L1017.78,285.978L1014.08,284.195C1014.08,284.195 1009.17,281.205 1001.86,277.516C983.759,268.379 951.5,254.138 951.5,254.138ZM952.067,273.791C962.503,279.17 981.451,288.826 994.206,294.677C998.177,296.499 1001.56,297.907 1003.85,298.823C1006.54,307.374 1012.34,325.983 1016.41,340.717C1018.57,348.538 1020.18,355.252 1020.96,358.614C1020.96,358.614 980.9,410.164 980.9,410.164C971.134,410.194 924.718,410.334 915.05,410.364C915.05,410.364 877.213,358.387 877.213,358.387C877.213,358.387 893.214,299.274 893.214,299.274L952.067,273.791Z" style="fill:rgb(11,18,0);"/>
        </g>
        <g transform="matrix(0.940286,0.529163,-0.509184,0.904785,237.75,-469.58)">
            <path d="M947.994,262L1010.54,292.121L1025.99,359.802L982.705,414.078L913.284,414.078L870,359.802L885.448,292.121L947.994,262Z" style="fill:rgb(249,39,70);fill-opacity:0.69;"/>
        </g>
        <g transform="matrix(0.478736,0,0,0.648738,244.126,-322.318)">
            <text x="1389.22px" y="1080.56px" style="font-family:'AvengeanceMightiestAvenger', 'Avengeance Mightiest Avenger';font-size:141.172px;stroke:black;stroke-width:0.56px;">A<tspan x="1466.59px " y="1080.56px ">V</tspan></text>
        </g>
    </g>
</svg>
